<?xml version="1.0" encoding="UTF-8"?><svg id="rubber_flag" xmlns="http://www.w3.org/2000/svg" xmlns:xlink="http://www.w3.org/1999/xlink" viewBox="0 0 216 144"><defs><clipPath id="clippath"><rect id="bleed_clip_mask" width="216" height="144" style="fill:none;"/></clipPath></defs><g style="clip-path:url(#clippath);"><rect id="background" x="-9" y="-9" width="234" height="162" style="fill:#231f20;"/><g id="stripes"><polygon id="red_stripe_bottom" points="68.52 88.35 114.85 154.95 225 98.7 225 91.51 116.9 146.72 71.85 81.94 70.63 81.94 -9 81.94 -9 88.35 64.62 88.35 68.52 88.35" style="fill:#ee3124;"/><polygon id="red_stripe_middle" points="82.87 60.74 123.85 119.26 225 67.68 225 60.5 125.9 111.03 86.2 54.34 86.2 54.34 -9 54.34 -9 60.74 82.87 60.74 82.87 60.74" style="fill:#ee3124;"/><polygon id="yellow_stripe" points="86.2 54.34 125.9 111.03 225 60.47 225 36.8 132.94 83.77 97.5 33.15 97.5 33.15 -9 33.15 -9 54.34 86.2 54.34 86.2 54.34" style="fill:#ffd600;"/><polygon id="red_stripe_upper" points="97.5 33.15 132.94 83.77 225 36.74 225 29.56 134.99 75.54 100.83 26.75 -9 26.75 -9 33.15 97.5 33.15 97.5 33.15" style="fill:#ee3124;"/></g></g></svg>