<?xml version="1.0" encoding="UTF-8"?><svg id="ally_flag" xmlns="http://www.w3.org/2000/svg" xmlns:xlink="http://www.w3.org/1999/xlink" viewBox="0 0 216 144"><defs><clipPath id="clippath"><rect id="bleed_clip_mask" x="-.08" width="216.15" height="144" style="fill:none;"/></clipPath></defs><g style="clip-path:url(#clippath);"><g id="stripes"><rect id="white_stripe_3" x="-9" y="108" width="234" height="45" style="fill:#fff;"/><rect id="black_stripe_3" x="-9" y="84" width="234" height="36" style="fill:#231f20;"/><rect id="white_stripe_2" x="-9" y="60" width="234" height="36" style="fill:#fff;"/><rect id="black_stripe_2" x="-9" y="36" width="234" height="36" style="fill:#231f20;"/><rect id="white_stripe_1" x="-9" y="7.5" width="234" height="40.5" style="fill:#fff;"/><rect id="black_stripe_1" x="-9" y="-9" width="234" height="33" style="fill:#231f20;"/></g><g id="raindow_a"><polygon id="violet_stripe_right" points="135.13 108.17 168.85 153 222.85 153 189.13 108.17 135.13 108.17" style="fill:#542e8e;"/><polygon id="violet_stripe_left" points="-6.69 153 47.31 153 80.26 108.99 26.26 108.99 -6.69 153" style="fill:#542e8e;"/><polygon id="indigo_stripe_right" points="171.31 84.42 117.31 84.42 144 120 198 120 171.31 84.42" style="fill:#263287;"/><polygon id="indigo_stripe_left" points="18 120 72 120 98.21 85.05 44.21 85.05 18 120" style="fill:#263287;"/><polygon id="green_stripe_right" points="153.22 60.29 99.22 60.29 126 96 180 96 153.22 60.29" style="fill:#00853e;"/><polygon id="green_stripe_left" points="36 96 90 96 116.76 60.32 62.76 60.32 36 96" style="fill:#00853e;"/><polygon id="yellow_stripe" points="137.52 39.36 78.48 39.36 54 72 108 72 162 72 137.52 39.36" style="fill:#fff21f;"/><polygon id="orange_stripe" points="120.78 17.04 95.22 17.04 72 48 144 48 120.78 17.04" style="fill:#f58021;"/><polygon id="red_stripe" points="108 0 90 24 126 24 108 0" style="fill:#d92632;"/></g></g></svg>