<?xml version="1.0" encoding="UTF-8"?><svg id="leather_flag" xmlns="http://www.w3.org/2000/svg" xmlns:xlink="http://www.w3.org/1999/xlink" viewBox="0 0 216 144"><defs><clipPath id="clippath"><rect id="bleed_clip_mask" width="216" height="144" style="fill:none;"/></clipPath></defs><g style="clip-path:url(#clippath);"><g id="stripes"><rect id="black_stripe_4" x="-9" y="119.99" width="234" height="33.01" style="fill:#231f20;"/><rect id="blue_stripe_4" x="-9" y="103.99" width="234" height="24" style="fill:#262a82;"/><rect id="black_stripe_3" x="-9" y="87.99" width="234" height="24" style="fill:#231f20;"/><rect id="blue_stripe__3" x="-9" y="72" width="234" height="23.99" style="fill:#262a82;"/><rect id="white_stripe" x="-9" y="55.99" width="234" height="24" style="fill:#fff;"/><rect id="blue_stripe_2" x="-9" y="40" width="234" height="24" style="fill:#262a82;"/><rect id="black_stripe_2" x="-9" y="24" width="234" height="24" style="fill:#231f20;"/><rect id="blue_stripe_1" x="-9" y="3.5" width="234" height="28.5" style="fill:#262a82;"/><rect id="black_stripe_1" x="-9" y="-9" width="234" height="25" style="fill:#231f20;"/></g><path id="heart" d="M22.89,48.02c-1.22-2.24-2.61-4.41-3.63-6.74-1.28-2.93-1.11-6.02-.36-9.09,1.44-3.71,3.59-6.9,6.89-9.19,5.29-3.67,11-3.7,16.9-1.84,.41,.13,.82,.26,1.23,.39,.33-1.97,.64-3.85,.96-5.74,1.14-2.23,2-4.67,3.46-6.66C53.81,1.72,63.32,.21,71.62,5.25c4.15,2.52,7.5,5.74,8.94,10.57,1.41,4.88,1.69,9.88,1.57,14.92-.01,.48,.02,.95,.04,1.43-.21,2.18-.38,4.36-.65,6.53-.39,3.12-.85,6.23-1.29,9.34-.72,3.24-1.43,6.49-2.17,9.73-.42,1.86-.45,1.81-2.4,1.85-6.66,.14-13.31,.38-19.96,.45-5.3,.05-10.57-.46-15.74-1.73-6.76-1.66-12.62-4.84-17.07-10.32Z" style="fill:#ef373e;"/></g></svg>