<?xml version="1.0" encoding="UTF-8"?><svg id="new_pride_flag" xmlns="http://www.w3.org/2000/svg" xmlns:xlink="http://www.w3.org/1999/xlink" viewBox="0 0 216 144"><defs><clipPath id="clippath"><rect id="bleed_clip_mask" width="216" height="144" style="fill:none;"/></clipPath></defs><g style="clip-path:url(#clippath);"><g id="rainbow_stripes"><rect id="violet_stripe" x="-9" y="108" width="234" height="45" style="fill:#542e8e;"/><rect id="indigo_stripe" x="-9" y="84" width="234" height="36" style="fill:#263287;"/><rect id="green_stripe" x="-9" y="60" width="234" height="36" style="fill:#00853e;"/><rect id="yellow_stripe" x="-9" y="36" width="234" height="36" style="fill:#fff21f;"/><rect id="orange_stripe" x="-9" y="7.5" width="234" height="40.5" style="fill:#f58021;"/><rect id="red_stripe" x="-9" y="-9" width="234" height="33" style="fill:#d92632;"/></g><g id="qtpoc_stripes"><rect id="black_stripe" x="-42.52" y="38.61" width="282.3" height="36" transform="translate(-14.84 64.22) rotate(-33.69)" style="fill:#231f20;"/><rect id="brown_stripe" x="-38.1" y="22.92" width="234" height="36" transform="translate(-9.45 50.64) rotate(-33.69)" style="fill:#935f22;"/><rect id="blue_stripe" x="-34.43" y="8.71" width="182.76" height="36" transform="translate(-5.25 36.08) rotate(-33.69)" style="fill:#00bcda;"/><rect id="pink_stripe" x="-32.01" y="-11.43" width="131.51" height="42.15" transform="translate(.32 20.34) rotate(-33.69)" style="fill:#f6a0b3;"/><rect id="white_stripe" x="-28.32" y="-19.63" width="81.54" height="36.3" transform="translate(2.91 6.65) rotate(-33.69)" style="fill:#fff;"/></g></g></svg>