<?xml version="1.0" encoding="UTF-8"?><svg id="progress_pride_flag" xmlns="http://www.w3.org/2000/svg" xmlns:xlink="http://www.w3.org/1999/xlink" viewBox="0 0 216 144"><defs><clipPath id="clippath"><rect id="bleed_clip_mask" width="216" height="144" style="fill:none;"/></clipPath></defs><g style="clip-path:url(#clippath);"><g id="stripes"><rect id="violet_stripe" x="-9" y="108" width="234" height="45" style="fill:#542e8e;"/><rect id="indigo_stripe" x="-9" y="84" width="234" height="36" style="fill:#263287;"/><rect id="green_stripe" x="-9" y="60" width="234" height="36" style="fill:#00853e;"/><rect id="yellow_stripe" x="-9" y="36" width="234" height="36" style="fill:#fff21f;"/><rect id="orange_stripe" x="-9" y="7.5" width="234" height="40.5" style="fill:#f58021;"/><rect id="red_stripe" x="-9" y="-9" width="234" height="33" style="fill:#d92632;"/></g><g id="chevrons"><polygon id="black_chevron" points="113.89 72 27.65 -8.82 -9 -8.82 -9 152.82 27.65 152.82 113.89 72" style="fill:#231f20;"/><polygon id="brown_chevron" points="-9 152.97 9.68 152.97 96.08 72 9.68 -8.97 -9 -8.97 -9 152.97" style="fill:#935f22;"/><polygon id="blue_chevron" points="-9 152.31 -7.68 152.31 78.01 72 -7.68 -8.31 -9 -8.31 -9 152.31" style="fill:#00bcda;"/><polygon id="pink_chevron" points="-9 136.75 60.09 72 -9 7.25 -9 136.75" style="fill:#f6a0b3;"/><polygon id="white_chevron" points="-9 119.55 41.74 72 -9 24.45 -9 119.55" style="fill:#fff;"/></g></g></svg>