<?xml version="1.0" encoding="UTF-8"?><svg id="polyamorous_flag__infinity_heart_" xmlns="http://www.w3.org/2000/svg" xmlns:xlink="http://www.w3.org/1999/xlink" viewBox="0 0 216 144"><defs><clipPath id="clippath"><rect id="bleed_clip_mask" width="216" height="144" style="fill:none;"/></clipPath></defs><g style="clip-path:url(#clippath);"><g id="stripes"><rect id="black_stripe" x="-9" y="71.99" width="234" height="81.01" style="fill:#231f20;"/><rect id="red_stripe" x="-9" y="19.5" width="234" height="76.49" style="fill:#ef373e;"/><rect id="blue_stripe" x="-9" y="-9" width="234" height="57" style="fill:#000f9f;"/></g><path id="infinity_heart" d="M153.81,48.67c-.03,.49-.2,.96,.42,1.3,5.86,3.31,9.3,8.46,10.9,14.84,2.02,8.03,1.16,15.75-3.21,22.9-2.32,3.79-5.56,6.58-9.68,8.3-.19,.08-.37,.19-.55,.29-3.23,1.08-6.55,1.61-9.94,1.22-2.27-.26-4.5-.8-6.75-1.22-.41-.15-.83-.27-1.21-.47-.63-.33-1.04-.16-1.28,.49-2.66,3.24-5.19,6.61-8.02,9.71-5.31,5.83-10.8,11.51-16.21,17.25-.08,.08-.18,.14-.08,.06-2.58-2.47-5.18-4.82-7.63-7.33-5.93-6.08-11.49-12.49-16.68-19.22-.13-.16-.27-.31-.41-.47-.24-.65-.66-.78-1.28-.48-.39,.19-.81,.31-1.21,.46-3.47,.92-6.99,1.63-10.59,1.22-2.06-.23-4.07-.81-6.11-1.23-2.86-1.25-5.46-2.88-7.61-5.19-3.54-3.8-5.56-8.35-6.39-13.42-1.14-6.95-.2-13.58,3.35-19.74,1.9-3.29,4.47-5.94,7.8-7.8,.67-.38,.89-.8,.72-1.49,.07-3.44,.44-6.83,1.78-10.05,2.88-6.93,8.11-10.71,15.53-11.35,6.37-.55,12.15,1.48,17.65,4.46,3.92,2.13,7.46,4.78,10.79,7.73,1.83-1.43,3.59-2.89,5.44-4.23,4.29-3.12,8.9-5.61,14.05-7.02,4.44-1.22,8.93-1.56,13.39-.14,6.79,2.16,10.66,7.02,12.23,13.79,.51,2.21,.54,4.54,.79,6.82Zm-58.77,47.69c2.47,2.87,4.9,5.76,7.41,8.59,1.77,2,3.64,3.92,5.54,5.94,1.85-1.98,3.68-3.85,5.41-5.81,2.54-2.88,5.02-5.81,7.53-8.72l3.85-4.69c-6.22-3.68-11.62-8.1-16.79-12.92-5.18,4.84-10.61,9.27-16.79,12.93,1.33,1.62,2.59,3.15,3.85,4.68Zm16.38-47.7l-3.43,3.31-3.43-3.31c-3.75-3.88-7.96-7.15-12.77-9.62-3.18-1.63-6.49-2.78-10.11-2.91-6.79-.25-10.42,4.44-10.41,11.29,3.34-.19,6.56,.49,9.77,1.3,1.58,.61,3.18,1.17,4.73,1.85,6.71,2.97,12.57,7.24,18.1,12,1.39,1.2,2.75,2.44,4.14,3.67,1.06-.96,2.07-1.89,3.1-2.79,5.14-4.52,10.55-8.66,16.71-11.71,2.31-1.15,4.75-2.02,7.14-3.02,3.23-.82,6.48-1.48,9.96-1.3-.22-1.37-.33-2.63-.64-3.83-.92-3.63-2.96-6.27-6.77-7.17-2.06-.48-4.15-.41-6.2,.06-7.99,1.82-14.21,6.54-19.87,12.18Zm-9.94,23.86c-.11-.13-.18-.22-.26-.3-3.82-3.56-7.83-6.88-12.23-9.71-4.1-2.64-8.39-4.88-13.24-5.81-1.14-.22-2.3-.27-3.6-.42,2.73,10.46,7.87,19.43,13.71,28.05,3.16-1.34,11.9-7.94,15.63-11.81Zm42.31-16.14c-.43,0-.74-.05-1.02,0-2.18,.45-4.42,.72-6.51,1.43-5.88,2.01-10.93,5.51-15.72,9.37-2.08,1.68-4.07,3.46-6.18,5.27,4.89,4.56,9.93,8.65,15.7,11.94,5.88-8.69,11.02-17.66,13.72-28.02Zm-66.34,31.49c-5.86-8.84-10.86-18.02-13.84-28.32-.27,.18-.4,.41-.56,.63-.5,.67-1.09,1.28-1.49,2-3.68,6.62-3.84,13.38-.33,20.05,3.27,6.23,9.69,7.58,16.23,5.64Zm74.8-28.42c-2.86,10.43-7.9,19.61-13.75,28.47,2.24,.64,4.36,.85,6.51,.7,3.24-.23,5.97-1.54,8.1-4.01,5.27-6.11,5.46-17.41,.43-23.72-.36-.46-.78-.88-1.29-1.45Z" style="fill:#fd0;"/></g></svg>