<?xml version="1.0" encoding="UTF-8"?><svg id="pony_flag" xmlns="http://www.w3.org/2000/svg" xmlns:xlink="http://www.w3.org/1999/xlink" viewBox="0 0 216 144"><defs><clipPath id="clippath"><rect id="bleed_clip_mask" width="216" height="144" style="fill:none;"/></clipPath></defs><g style="clip-path:url(#clippath);"><rect id="background" x="-9" y="-9" width="234" height="162" style="fill:#231f20;"/><g id="stripes"><rect id="white_stripe" x="-9" y="55.33" width="234" height="33.33" style="fill:#fff;"/><rect id="blue_stripe" x="-9" y="63.55" width="234" height="16.81" style="fill:#005f9e;"/></g><g id="circles"><circle id="white_circle" cx="108" cy="72" r="54.48" style="fill:#fff;"/><circle id="green_circle" cx="108" cy="72" r="51.17" style="fill:#006b35;"/></g><g id="horse_shoes"><g id="back_shoe"><path id="shoe_shape" d="M121.6,65.38c-.1,7.96-1.49,14.44-5.06,20.33-2.91,4.81-6.82,8.47-12.21,10.29-5.19,1.75-10.24,1.17-15.11-1.24-4.68-2.32-8.27-5.87-11.1-10.22-1.14-1.75-2.3-3.53-3.1-5.45-1.53-3.66-2.62-7.49-3.13-11.44-.8-6.23-.44-12.36,1.55-18.36,.2-.59,.44-1.16,.61-1.76,.18-.63,.36-1.26,.43-1.9,.24-2.17,1.69-3.69,3.81-3.9,1.93-.19,3.69,1,4.29,2.86,.14,.44,.15,.8-.1,1.21-3.2,5.22-4.24,10.99-4.07,17.01,.14,4.8,1.13,9.46,3.19,13.79,2.1,4.44,4.87,8.4,9.17,11.06,6.19,3.82,13.29,2.67,17.98-2.94,2.68-3.21,4.32-6.92,5.13-10.98,1.79-8.98,.46-17.5-4.1-25.47-1.11-1.93-2.45-3.7-4.09-5.21-.66-.6-.85-1.21-.64-2.07,.47-1.93,2-3.26,3.97-3.35,1.76-.08,3.43,1.16,4.05,2.94,.19,.54,.45,1.07,.79,1.53,3.78,5.19,6.1,10.99,7.09,17.32,.37,2.34,.51,4.72,.64,5.95Z" style="fill:#fcfdfc;"/><g id="holes"><g id="left_holes"><path id="left_hole_4" d="M83.94,85.53c-.16,.21-.31,.6-.57,.72-.3,.13-.86,.17-1.04-.02-.77-.8-1.48-1.67-2.15-2.56-.29-.39-.08-.83,.26-1.14,.35-.32,.85-.43,1.16-.1,.79,.84,1.49,1.76,2.22,2.65,.07,.08,.06,.22,.12,.45Z" style="fill:#231f20;"/><path id="left_hole_3" d="M80.03,78.57c-.37,.38-.6,.75-.93,.91-.4,.2-.89,.06-1.11-.36-.47-.93-.91-1.88-1.3-2.84-.18-.44-.03-.93,.4-1.09,.34-.13,1.01-.14,1.13,.05,.65,1.03,1.18,2.14,1.81,3.33Z" style="fill:#231f20;"/><path id="left_hole_2" d="M77.18,70.45c.02,.69-.22,1.11-.78,1.26-.57,.15-1.03-.11-1.18-.65-.27-.96-.48-1.95-.64-2.94-.09-.56,.21-.98,.8-1.09,.58-.1,1,.15,1.15,.72,.25,.93,.46,1.87,.65,2.7Z" style="fill:#231f20;"/><path id="left_hole_1" d="M75.81,60.69c0,.43,.03,.86,0,1.28-.06,.74-.46,1.14-1.06,1.13-.56-.02-.99-.4-1-1.07,0-.97,.05-1.94,.15-2.9,.06-.56,.57-.92,1.06-.85,.5,.08,.87,.35,.91,.9,.03,.5,0,1.01,0,1.51h-.06Z" style="fill:#231f20;"/></g><g id="right_holes"><path id="right_hole_4" d="M117.07,79.3c-.08,.34-.09,.5-.15,.64-.36,.81-.71,1.64-1.12,2.43-.32,.62-.94,.81-1.46,.54-.48-.25-.66-.78-.4-1.4,.36-.86,.75-1.7,1.17-2.53,.25-.49,.74-.63,1.19-.42,.33,.15,.56,.53,.77,.75Z" style="fill:#231f20;"/><path id="right_hole_3" d="M116.56,73.67c.16-.87,.29-1.84,.52-2.78,.13-.54,.56-.85,1.15-.75,.58,.1,.91,.5,.85,1.07-.12,1-.28,2-.52,2.98-.13,.52-.58,.81-1.18,.68-.52-.11-.8-.51-.81-1.21Z" style="fill:#231f20;"/><path id="right_hole_2" d="M119.3,64.72c0,.24,.03,.44,0,.63-.1,.54-.55,.96-1.04,.92-.51-.04-.91-.34-.98-.84-.13-.96-.21-1.93-.23-2.9-.01-.66,.43-1.06,.99-1.08,.55-.02,.98,.36,1.06,1.01,.1,.77,.14,1.55,.2,2.27Z" style="fill:#231f20;"/><path id="right_hole_1" d="M116.17,52.76c.16,.12,.58,.28,.72,.58,.43,.86,.78,1.77,1.12,2.68,.22,.56,0,1-.53,1.25-.54,.25-1.04,.1-1.29-.42-.44-.9-.84-1.84-1.17-2.79-.23-.65,.28-1.28,1.14-1.3Z" style="fill:#231f20;"/></g></g></g><g id="front_shoe"><path id="shoe_shape-2" d="M142.88,78.8c-.1,7.96-1.49,14.44-5.06,20.33-2.91,4.81-6.82,8.47-12.21,10.29-5.19,1.75-10.24,1.17-15.11-1.24-4.68-2.32-8.27-5.87-11.1-10.22-1.14-1.75-2.3-3.53-3.1-5.45-1.53-3.66-2.62-7.49-3.13-11.44-.8-6.23-.44-12.36,1.55-18.36,.2-.59,.44-1.16,.61-1.76,.18-.63,.36-1.26,.43-1.9,.24-2.17,1.69-3.69,3.81-3.9,1.93-.19,3.69,1,4.29,2.86,.14,.44,.15,.8-.1,1.21-3.2,5.22-4.24,10.99-4.07,17.01,.14,4.8,1.13,9.46,3.19,13.79,2.1,4.44,4.87,8.4,9.17,11.06,6.19,3.82,13.29,2.67,17.98-2.94,2.68-3.21,4.32-6.92,5.13-10.98,1.79-8.98,.46-17.5-4.1-25.47-1.11-1.93-2.45-3.7-4.09-5.21-.66-.6-.85-1.21-.64-2.07,.47-1.93,2-3.26,3.97-3.35,1.76-.08,3.43,1.16,4.05,2.94,.19,.54,.45,1.07,.79,1.53,3.78,5.19,6.1,10.99,7.09,17.32,.37,2.34,.51,4.72,.64,5.95Z" style="fill:#fcfdfc;"/><g id="holes-2"><g id="left_holes-2"><path id="left_hole_4-2" d="M105.21,98.95c-.16,.21-.31,.6-.57,.72-.3,.13-.86,.17-1.04-.02-.77-.8-1.48-1.67-2.15-2.56-.29-.39-.08-.83,.26-1.14,.35-.32,.85-.43,1.16-.1,.79,.84,1.49,1.76,2.22,2.65,.07,.08,.06,.22,.12,.45Z" style="fill:#231f20;"/><path id="left_hole_3-2" d="M101.31,91.99c-.37,.38-.6,.75-.93,.91-.4,.2-.89,.06-1.11-.36-.47-.93-.91-1.88-1.3-2.84-.18-.44-.03-.93,.4-1.09,.34-.13,1.01-.14,1.13,.05,.65,1.03,1.18,2.14,1.81,3.33Z" style="fill:#231f20;"/><path id="left_hole_2-2" d="M98.46,83.87c.02,.69-.22,1.11-.78,1.26-.57,.15-1.03-.11-1.18-.65-.27-.96-.48-1.95-.64-2.94-.09-.56,.21-.98,.8-1.09,.58-.1,1,.15,1.15,.72,.25,.93,.46,1.87,.65,2.7Z" style="fill:#231f20;"/><path id="left_hole_1-2" d="M97.08,74.12c0,.43,.03,.86,0,1.28-.06,.74-.46,1.14-1.06,1.13-.56-.02-.99-.4-1-1.07,0-.97,.05-1.94,.15-2.9,.06-.56,.57-.92,1.06-.85,.5,.08,.87,.35,.91,.9,.03,.5,0,1.01,0,1.51h-.06Z" style="fill:#231f20;"/></g><g id="right_holes-2"><path id="right_hole_4-2" d="M138.35,92.72c-.08,.34-.09,.5-.15,.64-.36,.81-.71,1.64-1.12,2.43-.32,.62-.94,.81-1.46,.54-.48-.25-.66-.78-.4-1.4,.36-.86,.75-1.7,1.17-2.53,.25-.49,.74-.63,1.19-.42,.33,.15,.56,.53,.77,.75Z" style="fill:#231f20;"/><path id="right_hole_3-2" d="M137.84,87.09c.16-.87,.29-1.84,.52-2.78,.13-.54,.56-.85,1.15-.75,.58,.1,.91,.5,.85,1.07-.12,1-.28,2-.52,2.98-.13,.52-.58,.81-1.18,.68-.52-.11-.8-.51-.81-1.21Z" style="fill:#231f20;"/><path id="right_hole_2-2" d="M140.58,78.14c0,.24,.03,.44,0,.63-.1,.54-.55,.96-1.04,.92-.51-.04-.91-.34-.98-.84-.13-.96-.21-1.93-.23-2.9-.01-.66,.43-1.06,.99-1.08,.55-.02,.98,.36,1.06,1.01,.1,.77,.14,1.55,.2,2.27Z" style="fill:#231f20;"/><path id="right_hole_1-2" d="M137.45,66.18c.16,.12,.58,.28,.72,.58,.43,.86,.78,1.77,1.12,2.68,.22,.56,0,1-.53,1.25-.54,.25-1.04,.1-1.29-.42-.44-.9-.84-1.84-1.17-2.79-.23-.65,.28-1.28,1.14-1.3Z" style="fill:#231f20;"/></g></g></g></g></g></svg>