<?xml version="1.0" encoding="UTF-8"?><svg id="twink_flag" xmlns="http://www.w3.org/2000/svg" xmlns:xlink="http://www.w3.org/1999/xlink" viewBox="0 0 216 144"><defs><clipPath id="clippath"><rect id="bleed_clip_mask" width="216" height="144" style="fill:none;"/></clipPath></defs><g style="clip-path:url(#clippath);"><g id="stripes"><rect id="yellow_stripe" x="-9" y="72" width="234" height="81" style="fill:#f4f090;"/><rect id="white_stripe" x="-9" y="19.5" width="234" height="76.49" style="fill:#fff;"/><rect id="pink_stripe" x="-9" y="-9" width="234" height="57" style="fill:#ecbad6;"/></g><path id="male_symbols" d="M116.93,62.89c2.86,.03,5.71,.06,8.57,.09,.53,0,1.06,0,1.73,0l1.04,1.16v10.22h-2.18v-6.94l-5.98,5.96c3.03,4.41,3.47,9.31,.09,14.13-2.86,4.07-7.02,5.64-11.83,4.64-5.87-1.21-8.93-5.17-9.58-11.1-6.04-.75-10.18-3.81-11.23-9.98-.86-5.05,.99-9.26,5.41-11.96,4.63-2.82,9.26-2.29,13.56,.71l5.97-6.01h-7.09v-2.21h10.31l1.13,1.01c0,3.03,0,5.93,0,8.83,0,.49,.07,.97,.1,1.46h-2.48v-7.19l-6.04,6.05c1.61,1.94,2.38,4.35,2.57,6.86,1.35,.32,2.62,.48,3.78,.92,1.2,.45,2.31,1.17,3.3,1.7l6.03-6.01h-7.37l.18-2.36Zm-8.34,6.02c.17-5.11-4.34-9.42-9.65-9.3-5.57,.13-9.69,4.64-9.32,10.22,.33,5.02,4.86,9.26,9.34,8.72,1.19-5.17,4.39-8.38,9.63-9.64Zm-7.44,11.96c0,5.29,4.31,9.37,9.7,9.28,5.43-.08,9.51-4.46,9.3-10-.19-5.02-4.53-9.25-9.27-8.99-1.23,5.2-4.42,8.47-9.73,9.71Zm7.14-9.47c-3.4,.7-6.74,4.16-6.75,6.91,3.04-.36,6.47-3.82,6.75-6.91Z" style="fill:#231f20;"/></g></svg>