<?xml version="1.0" encoding="UTF-8"?><svg id="puppy_flag" xmlns="http://www.w3.org/2000/svg" xmlns:xlink="http://www.w3.org/1999/xlink" viewBox="0 0 216 144"><defs><clipPath id="clippath"><rect id="bleed_clip_mask" width="216" height="144" style="fill:none;"/></clipPath></defs><g style="clip-path:url(#clippath);"><g id="stripes"><rect id="black_stripe_upper_corner" x="156.42" y="-22.11" width="81.92" height="49.87" transform="translate(33.24 -106.84) rotate(32.93)" style="fill:#231f20;"/><rect id="blue_stripe_upper_right" x="102.69" y="4.17" width="136.7" height="37.52" transform="translate(39.94 -89.29) rotate(32.93)" style="fill:#262a82;"/><rect id="black_stripe_upper_right" x="52.25" y="19.08" width="191.53" height="37.47" transform="translate(44.33 -74.38) rotate(32.93)" style="fill:#231f20;"/><rect id="blue_stripe_middle_right" x=".08" y="33.42" width="246.28" height="44.15" transform="translate(49.96 -58.07) rotate(32.93)" style="fill:#262a82;"/><rect id="whtie_stripe" x="-37.64" y="51.77" width="284.47" height="50.96" transform="translate(58.8 -44.45) rotate(32.93)" style="fill:#fff;"/><rect id="blue_stripe_middle_left" x="-38.97" y="83.09" width="246.28" height="37.47" transform="translate(68.87 -29.4) rotate(32.93)" style="fill:#262a82;"/><rect id="black_stripe_lower_left" x="-34.57" y="97.97" width="191.53" height="37.47" transform="translate(73.27 -14.52) rotate(32.93)" style="fill:#231f20;"/><rect id="blue_stripe_lower_left" x="-31.86" y="112.32" width="136.7" height="43.69" transform="translate(78.8 1.72) rotate(32.93)" style="fill:#262a82;"/><rect id="black_stripe_lower_corner" x="-25.75" y="127.7" width="81.92" height="37.43" transform="translate(82.03 15.25) rotate(32.93)" style="fill:#231f20;"/></g><path id="bone" d="M58.52,65.82c-.88-2.61-1.01-5.22,.09-7.8,2-4.68,6.74-6.75,12.01-5.26,3.82,1.08,6.93,3.32,9.75,6.01,.76,.72,1.51,.98,2.53,.97,13.81-.03,27.63-.02,41.44-.02,.47,0,.95-.05,1.42-.08,2.78,.03,5.56,.08,8.35,.05,.4,0,.86-.35,1.19-.65,2.58-2.4,5.33-4.52,8.66-5.81,2.27-.88,4.62-1.27,7.01-.7,3.87,.93,6.2,3.48,6.99,7.31,.87,4.18-.57,7.61-3.95,10.16-1.03,.78-2.26,1.31-3.56,2.05,3.16,1.12,5.59,3.09,7.06,6.11,1.18,3.54,.96,6.9-1.36,9.95-2.44,3.21-6.4,4.35-10.75,3.11-3.94-1.12-7.08-3.51-10.04-6.22-.42-.38-1.09-.71-1.64-.71-14.21-.04-28.42-.03-42.63-.03-.27,0-.55,.05-.82,.08-2.78-.03-5.56-.09-8.35-.05-.43,0-.92,.4-1.28,.73-2.58,2.4-5.34,4.53-8.68,5.76-3.35,1.23-6.7,1.47-9.84-.58-5.99-3.9-5.66-12.81,.59-16.72,.87-.54,1.83-.95,2.98-1.55-3.26-1.13-5.67-3.11-7.15-6.13Z" style="fill:#ef373e;"/></g></svg>