<?xml version="1.0" encoding="UTF-8"?><svg id="two-spirit_pride_flag" xmlns="http://www.w3.org/2000/svg" xmlns:xlink="http://www.w3.org/1999/xlink" viewBox="0 0 216 144"><defs><clipPath id="clippath"><rect id="bleed_clip_mask" width="216" height="144" style="fill:none;"/></clipPath></defs><g style="clip-path:url(#clippath);"><g id="stripes"><rect id="violet_stripe" x="-9" y="108" width="234" height="45" style="fill:#542e8e;"/><rect id="indigo_stripe" x="-9" y="84" width="234" height="36" style="fill:#263287;"/><rect id="green_stripe" x="-9" y="60" width="234" height="36" style="fill:#00853e;"/><rect id="yellow_stripe" x="-9" y="36" width="234" height="36" style="fill:#fff21f;"/><rect id="orange_stripe" x="-9" y="7.5" width="234" height="40.5" style="fill:#f58021;"/><rect id="red_stripe" x="-9" y="-9" width="234" height="33" style="fill:#d92632;"/></g><g id="two_feathers"><path id="shape_outline" d="M74.47,120.3c-2.17-7.49-2.1-15.1-1.32-22.76,.04-.44,.06-.88,.08-1.32,.59-2.93,.95-5.93,1.81-8.78,1.48-4.89,3.26-9.68,4.91-14.52,.09-.26,.18-.53,.27-.79,1.81-3.37,3.42-6.88,5.49-10.09,2.82-4.35,5.99-8.47,9.1-12.81l-1.1-1.25c-2.28-3.27-3.65-6.85-3.63-10.88,.02-4.83,1.69-9.01,4.99-12.53,.19-.2,.36-.42,.54-.63,2.57-2.26,5.45-3.95,8.84-4.59,5.72-1.08,10.88,.18,15.4,3.91,.28,.23,.56,.45,.84,.68,2.81,2.94,4.73,6.33,5.32,10.41,.68,4.74-.36,9.07-3.05,13.02-.13,.2-.24,.41-.37,.62-.37,.41-.75,.83-1.11,1.25-.08,.09-.11,.21,.11,.13,3.02,4.22,6.19,8.34,9.01,12.69,2.07,3.2,3.68,6.71,5.49,10.08,1.51,4.21,3.2,8.37,4.46,12.65,1.04,3.51,1.57,7.16,2.33,10.75,.05,.23,.14,.46,.21,.69,.17,3.92,.47,7.84,.49,11.76,.02,4.17-.45,8.31-1.73,12.32-.48,.83-.9,1.7-1.44,2.48-1.81,2.61-4.37,3.24-7.11,1.61-1.26-.75-2.33-1.8-3.47-2.75-.49-.41-.91-.9-1.36-1.35-1.61-2.34-3.47-4.55-4.78-7.05-2.93-5.6-5.58-11.34-8.35-17.03-2.46-7.24-4.93-14.48-7.19-21.14-2.27,6.68-4.73,13.91-7.19,21.14-3.55,8.48-7.39,16.8-13.13,24.08-1.43,1.27-2.81,2.62-4.31,3.8-1.12,.87-2.47,1.28-3.94,1.13-1.97-.21-3.1-1.52-4.08-3.03-.39-.6-.7-1.26-1.04-1.89ZM109.76,41.84l-.32,.02,.18,.13c.2,.43,.39,.87,.61,1.29,6.47,12.04,12.53,24.27,17.1,37.18,1.13,3.2,2.12,6.45,3.18,9.71l-1.44,.51c-4.27-15.08-10.85-29.1-18.16-42.83,0,1.21,.11,2.39,.14,3.57,.18,6.26-.78,12.4-2.02,18.51-.12,.61-.22,1.3-.09,1.89,1.66,7.39,4.17,14.45,7.89,21.08,.99,1.77,2.49,2.52,4.4,2.28,2.72-.34,5.25-1.19,6.96-3.56,.23-.31,.35-.7,.52-1.06l.71,.32c1.23,6.48,2.47,12.95,3.71,19.49l1.1-.16c-.57-6.81-1.99-13.4-3.75-19.97,1.7,0,3.26,.03,4.82-.01,.99-.03,2-.09,2.97-.29,.82-.16,1.12-.73,.94-1.63-2.64-13.09-7.98-24.91-16.56-35.2-3.7-4.44-7.88-8.34-12.9-11.28Zm-3.15-.06c-.7,.45-1.44,.86-2.1,1.36-1.54,1.16-3.13,2.27-4.55,3.56-12.41,11.3-19.51,25.52-22.85,41.79-.17,.82,.23,1.3,.9,1.44,1.01,.2,2.05,.27,3.09,.31,1.55,.05,3.11,.01,4.78,.01-1.8,6.59-3.19,13.19-3.76,19.97,.34,.06,.53,.12,.73,.13,.22,.01,.45-.02,.68-.04,.67-6.63,1.89-13.08,3.73-19.46,.22,.13,.3,.16,.36,.21,.14,.14,.3,.27,.41,.44,1.65,2.35,4.12,3.22,6.78,3.67,2.11,.36,3.66-.44,4.71-2.32,.66-1.19,1.3-2.39,1.9-3.62,3.7-7.51,5.86-15.49,7.22-23.71,.91-5.47,1.62-10.98,.95-16.53-.25-2.05-.82-4.06-1.24-6.09l-.42,.05c-8.24,15.31-15.89,30.88-20.68,47.75l-1.35-.52c4.82-17.03,12.57-32.74,20.7-48.39Zm13.62,6.55c5.35-5.06,6.88-15.63-.13-22.89-6.52-6.74-17.46-6.7-23.92,.09-6.89,7.24-5.39,17.72-.2,22.67,3.59-2.77,7.15-5.52,10.77-8.32-1.17-2.11-2.44-4.41-3.74-6.77l1.28-.64c1.31,2.34,2.56,4.58,3.89,6.96l3.92-7.02,1.22,.74-3.82,6.91c1.94,1.34,3.84,2.54,5.62,3.91,1.77,1.37,3.41,2.9,5.1,4.36Z" style="fill:#1d1d1d;"/><path id="left_feather_background" d="M106.61,41.79c-8.12,15.66-15.87,31.36-20.7,48.39l1.35,.52c4.79-16.87,12.44-32.44,20.68-47.75l.42-.05c.42,2.03,.99,4.04,1.24,6.09,.68,5.56-.04,11.06-.95,16.53-1.37,8.22-3.52,16.2-7.22,23.71-.6,1.22-1.24,2.43-1.9,3.62-1.04,1.88-2.59,2.68-4.71,2.32-2.66-.45-5.13-1.32-6.78-3.67-.11-.16-.27-.3-.41-.44-.05-.05-.13-.08-.36-.21-1.85,6.38-3.06,12.83-3.73,19.46-.23,.01-.46,.05-.68,.04-.2,0-.39-.07-.73-.13,.57-6.77,1.96-13.37,3.76-19.97-1.68,0-3.23,.04-4.78-.01-1.03-.03-2.08-.11-3.09-.31-.67-.13-1.07-.62-.9-1.44,3.34-16.27,10.44-30.49,22.85-41.79,1.42-1.29,3.01-2.4,4.55-3.56,.66-.5,1.4-.91,2.1-1.36Z" style="fill:#fbfcfc;"/><path id="right_feather_background" d="M109.76,41.84c5.02,2.94,9.2,6.84,12.89,11.28,8.57,10.29,13.92,22.11,16.56,35.2,.18,.9-.12,1.47-.94,1.63-.97,.19-1.98,.26-2.97,.29-1.56,.04-3.12,.01-4.82,.01,1.76,6.57,3.18,13.16,3.75,19.97l-1.1,.16c-1.25-6.54-2.48-13.02-3.71-19.49l-.71-.32c-.17,.35-.29,.74-.52,1.06-1.71,2.36-4.24,3.22-6.96,3.56-1.91,.24-3.41-.51-4.4-2.28-3.72-6.62-6.24-13.69-7.89-21.08-.13-.6-.03-1.28,.09-1.89,1.24-6.11,2.2-12.25,2.02-18.51-.03-1.18-.15-2.37-.14-3.57,7.31,13.72,13.89,27.75,18.16,42.83l1.44-.51c-1.06-3.26-2.05-6.51-3.18-9.71-4.57-12.91-10.62-25.14-17.1-37.18-.23-.42-.41-.86-.61-1.29,.05-.04,.1-.09,.14-.15Z" style="fill:#fbfcfc;"/><path id="circle_background" d="M120.22,48.34c-1.7-1.46-3.33-2.99-5.1-4.36-1.77-1.37-3.67-2.57-5.62-3.91l3.82-6.91-1.22-.74-3.92,7.02c-1.33-2.38-2.59-4.63-3.89-6.96l-1.28,.64c1.3,2.36,2.57,4.66,3.74,6.77-3.63,2.8-7.19,5.55-10.77,8.32-5.2-4.95-6.7-15.43,.2-22.67,6.46-6.79,17.41-6.83,23.92-.09,7.02,7.26,5.48,17.83,.13,22.89Zm-23.74-14.85h-.5c-.27,2.77-.53,5.56-.8,8.35l.58,.05c.24-2.8,.48-5.6,.72-8.4Zm24.39-3.04c.81,2.25,1.63,4.49,2.44,6.72,.32-2.63-.8-4.78-2.44-6.72Zm-16.57-6.16c1.78,1.26,3.4,.87,5.03,.43l-5.03-.43Zm-1.38,17.05l-.52-4.02c-.33,1.42-.71,2.84,.52,4.02Zm1.66-14.89l.05-.4-2.94-.82-.14,.6,3.03,.62Z" style="fill:#fbfcfc;"/><g id="circle_marks"><path d="M96.48,33.49c-.24,2.8-.48,5.6-.72,8.4l-.58-.05c.27-2.79,.53-5.57,.8-8.36h.5Z" style="fill:#1d1d1d;"/><path d="M120.87,30.45c1.63,1.94,2.76,4.09,2.44,6.72-.81-2.23-1.62-4.47-2.44-6.72Z" style="fill:#1d1d1d;"/><path d="M104.31,24.29l5.03,.43c-1.63,.44-3.25,.83-5.03-.43Z" style="fill:#1d1d1d;"/><path d="M102.93,41.34c-1.23-1.18-.84-2.6-.52-4.02l.52,4.02Z" style="fill:#1d1d1d;"/><path d="M104.59,26.45l-3.03-.62,.14-.6,2.94,.82-.05,.4Z" style="fill:#1d1d1d;"/></g></g></g></svg>