<?xml version="1.0" encoding="UTF-8"?><svg id="bear_flag" xmlns="http://www.w3.org/2000/svg" xmlns:xlink="http://www.w3.org/1999/xlink" viewBox="0 0 216 144"><defs><clipPath id="clippath"><rect id="bleed_clip_mask" width="216" height="144" style="fill:none;"/></clipPath></defs><g style="clip-path:url(#clippath);"><g id="stripes"><rect id="black_stripe" x="-9" y="113.14" width="234" height="39.86" style="fill:#231f20;"/><rect id="grey_stripe" x="-9" y="92.57" width="234" height="30.86" style="fill:#5f6369;"/><rect id="white_stripe" x="-9" y="72" width="234" height="30.86" style="fill:#fff;"/><rect id="tan_stripe" x="-9" y="51.43" width="234" height="30.86" style="fill:#fdf3cb;"/><rect id="golden_yellow_stripe" x="-9" y="30.86" width="234" height="30.86" style="fill:#ffea79;"/><rect id="orange_stripe" x="-9" y="5.79" width="234" height="35.36" style="fill:#f47721;"/><rect id="dark_brown_stripe" x="-9" y="-9" width="234" height="29.57" style="fill:#6a4005;"/></g><g id="bear_paw"><path id="toe_5" d="M71.54,20.13l.16,.19c1.1,1.6,2.09,3.26,1.87,5.3-.41,3.94-4.4,6.61-8.33,5.63-3.08-.77-5.21-2.84-7.06-5.26-1.31-1.73-2.3-3.64-3.03-5.68-.11-.04-.14-.11-.11-.22-.21-.89-.38-1.78-.38-2.71,0-2.33,.79-3.17,3.11-3.28,4.86-.23,8.94,1.58,12.47,4.81,.44,.4,.86,.83,1.29,1.25Z" style="fill:#010101;"/><path id="toe_4" d="M50.38,20.27c-1.51,1.75-3.35,2.93-5.68,3.22-1.56,.2-2.8-.39-3.75-1.64-.43-.57-.8-1.2-1.45-1.57-.11-.08-.29-.06-.33-.22-1.56-1.1-3.43-1.22-5.2-1.66-1.3-.32-2.52-.72-3.25-2.01-.78-1.38-.72-2.42,.36-3.6,1.47-1.61,3.43-2.28,5.45-2.8,2.97-.77,5.95-1.05,8.97-.21,4.6,1.28,6.86,5.9,5.01,10.3,.03,.12-.02,.19-.14,.2Z" style="fill:#010101;"/><path id="toe_3" d="M17.22,20.27s.01-.1,0-.15c-.05-2.74,1.17-3.68,4.11-3.09,2.92,.58,5.62,1.75,8.16,3.3h.16c4.66,3,3.84,8.12,1.94,11.36-.81,1.39-2.45,1.94-4.1,1.51-1.47-.38-2.71-1.19-3.82-2.2-3.21-2.94-5.52-6.42-6.44-10.74Z" style="fill:#010101;"/><path id="toe_2" d="M28.21,40.8c1.16,1.03,2.45,1.92,3.43,3.14,.43,.53,.86,1.06,1.23,1.62,1.54,2.37,1.67,4.31,.41,6-1.72,2.31-4.14,3.28-6.74,2.29-5.23-2-8.37-5.93-9.79-11.28-.15-.55,.01-1.19,.03-1.79,1.19-2.21,2.83-2.98,5.32-2.56,2.25,.37,4.16,1.49,6.09,2.58Z" style="fill:#010101;"/><path id="toe_1" d="M19.47,61.42c-.86-2.23-.33-3.45,2.04-3.99,5.11-1.15,9.48,.23,12.96,4.21,1.31,2.15,1.54,4.42,.68,6.77-.99,2.71-3.74,3.78-5.96,1.99-3.43-2.77-7.09-5.33-9.73-8.98Z" style="fill:#010101;"/><path id="palm" d="M38.03,61.47c.35-3.71,.82-7.39,1.87-10.98,.4-1.36-.11-2.52-.98-3.54-.97-1.14-2.2-1.98-3.36-2.9-1.18-.92-2.26-1.92-2.87-3.32-3.03-9.09,4.88-15.76,11.93-16.22,2.57-.17,4.83,.63,6.85,2.35,4.3,3.66,9.31,5.71,14.97,6.05,2.06,.12,3.91-.69,5.77-1.46,2.29-.95,4.51-2.06,7.03-2.33,2.82-.31,6.87,2.81,7.22,5.64,.17,1.4-.37,2.61-1.2,3.67-.63,.82-1.37,1.55-2.07,2.33-5.47,4.6-11.72,8.02-17.75,11.76-3.8,2.36-6.93,5.35-9.56,8.92-2.61,2.77-5.06,5.67-7.53,8.57-.54,.64-1.08,1.3-1.71,1.86-1.78,1.57-3.74,1.56-5.5-.06-1.89-1.74-2.78-3.99-3.01-6.49-.12-1.27-.07-2.56-.09-3.84Z" style="fill:#010101;"/></g></g></svg>