<?xml version="1.0" encoding="UTF-8"?>
<svg id="flag" xmlns="http://www.w3.org/2000/svg" xmlns:xlink="http://www.w3.org/1999/xlink" viewBox="0 0 216 144">
  <defs>
    <style>
      .cls-1 {
        fill: #f58249;
      }

      .cls-2 {
        fill: #e53446;
      }

      .cls-3 {
        fill: #26ac74;
      }

      .cls-4 {
        fill: #f8fcfa;
      }

      .cls-5 {
        clip-path: url(#clippath);
      }

      .cls-6 {
        fill: #9acd71;
      }

      .cls-7 {
        fill: none;
      }

      .cls-8 {
        fill: #fac759;
      }
    </style>
    <clipPath id="clippath">
      <rect id="bleed_clip_mask" data-name="bleed clip mask" class="cls-7" width="216" height="144"/>
    </clipPath>
  </defs>
  <g id="autistic_pride_flag" data-name="autistic pride flag">
    <g class="cls-5">
      <g id="stripes">
        <path id="green" class="cls-3" d="m-9,138.46v-14.54h234v29.09H-9v-14.54Z"/>
        <path id="light_green" data-name="light green" class="cls-6" d="m-9,113.62v-10.3h234v20.59H-9v-10.3Z"/>
        <path id="gold" class="cls-8" d="m-9,72.15v-31.18h234v62.35H-9v-31.18Z"/>
        <path id="orange" class="cls-1" d="m-9,30.77v-10.2h234v20.4H-9v-10.2Z"/>
        <path id="red" class="cls-2" d="m-9,5.79v-14.79h234v29.57H-9V5.79Z"/>
      </g>
      <path id="infinity" class="cls-4" d="m65.58,99.56l-1.33-.25-1.54-.4-1.54-.4-1.75-.67-1.75-.67-1.54-.85-1.54-.85-1.16-.83-1.16-.83-1.75-1.65-1.75-1.65-1.02-1.37-1.02-1.37-.98-1.71-.98-1.71-.84-2.38-.84-2.38-.35-1.62-.35-1.62v-4.28s.02-4.28.02-4.28l.49-1.82.49-1.82.5-1.32.5-1.32.39-.85.39-.85.86-1.43.86-1.43,1.39-1.71,1.39-1.71,1.35-1.23,1.35-1.23,1.44-1.07,1.44-1.07,1.87-.99,1.87-.99,1.67-.66,1.67-.66,2.66-.67,2.66-.67,3.23-.11,3.23-.11,1.76.22,1.76.22,2.04.49,2.04.49,1.81.67,1.81.67,2.19,1.11,2.19,1.11,1.9,1.27,1.9,1.27,1.43,1.06,1.43,1.06,2.37,2.01,2.37,2.01,2.76,2.56,2.76,2.56.06.14.06.14.64.49.64.49.73-.72.73-.72,2.84-2.62,2.84-2.62,2.1-1.76,2.1-1.76.86-.61.86-.61,2.56-1.71,2.56-1.71,2.38-1.21,2.38-1.21.86-.29.86-.29.67-.28.67-.28,2.24-.58,2.24-.58,1.52-.22,1.52-.22,4.13.1,4.13.1,2.66.68,2.66.68,1.62.64,1.62.64,1.34.68,1.34.68,1.37.93,1.37.93,1.24,1.09,1.24,1.09,1.16,1.42,1.16,1.42.74,1.22.74,1.22.66,1.3.66,1.3.77,2.3.77,2.3.32,1.41.32,1.41v4.28s.02,4.28.02,4.28l-.45,1.71-.45,1.71-.76,1.97-.76,1.97-1.16,1.94-1.16,1.94-.66.85-.66.85-2,2-2,2-1.12.76-1.12.76-1.11.7-1.11.7-1.12.57-1.12.57-1.51.61-1.51.61-2.14.55-2.14.55-1.65.22-1.65.22-3.53-.09-3.53-.09-2.55-.61-2.55-.61-2.01-.75-2.01-.75-1.96-1.04-1.96-1.04-1.66-1.08-1.66-1.08-1.77-1.34-1.77-1.34-.72-.57-.72-.57-1.12-.95-1.12-.95-.95-.88-.95-.88-2.8-2.61-2.8-2.61-.18.06-.18.06-3.1,2.86-3.1,2.86-1.52,1.32-1.52,1.32-.95.78-.95.78-.95.73-.95.73-2.38,1.6-2.38,1.6-2.47,1.21-2.47,1.21-1.62.58-1.62.58-2.28.56-2.28.56-1.33.19-1.33.19h-3.8s-3.8-.03-3.8-.03l-1.33-.25h0Zm11.2-11.79l2.07-.51,1.45-.58,1.45-.58,1.05-.53,1.05-.53,1.05-.64,1.05-.64.6-.43.6-.43h.27l.63-.52.63-.52.99-.76.99-.76,1.26-1.06,1.26-1.06.9-.84.9-.84,2.16-2,2.16-2,.2-.3.2-.3-2.68-2.46-2.68-2.46-1.72-1.52-1.72-1.52-1.04-.86-1.04-.86-1.43-1.06-1.43-1.06-1.9-1.1-1.9-1.1-1.57-.64-1.57-.64-1.47-.37-1.47-.37-1.71-.21-1.71-.21-1.24.12-1.24.12-1.71.38-1.71.38-1.52.68-1.52.68-.76.49-.76.49-.95.73-.95.73-1.08,1.21-1.08,1.21-.87,1.55-.87,1.55-.3.88-.3.88-.29,1.34-.29,1.34v1.81s0,1.81,0,1.81l.49,2.15.49,2.15.89,1.68.89,1.68,1.05,1.21,1.05,1.21,1.14.91,1.14.91,1.47.74,1.47.74,1.88.48,1.88.48.57.09.57.09,2.28-.06,2.28-.06,2.07-.51h0Zm71.22.02l1.95-.51,1.29-.63,1.29-.63,1.23-.83,1.23-.83,1.3-1.35,1.3-1.35.8-1.33.8-1.33.36-.76.36-.76.36-1.33.36-1.33.1-2.28.1-2.28-.4-2-.4-2-.99-1.95-.99-1.95-1.22-1.33-1.22-1.33-1.21-.86-1.21-.86-1.36-.66-1.36-.66-1.92-.45-1.92-.45-1.35-.12-1.35-.12-1.66.21-1.66.21-1.65.39-1.65.39-1.24.47-1.24.47-1.71.86-1.71.86-1.89,1.26-1.89,1.26-.41.29-.41.29-.94.76-.94.76-1.52,1.33-1.52,1.33-1.33,1.23-1.33,1.23-1.47,1.41-1.47,1.41.21.32.21.32.88.74.88.74,2.19,2.04,2.19,2.04,2,1.69,2,1.69.76.58.76.58,1.9,1.25,1.9,1.25,1.14.59,1.14.59,1.12.49,1.12.49,1.93.46,1.93.46.48.09.48.09,2.28-.05,2.28-.05,1.95-.51Z"/>
    </g>
  </g>
</svg>